<?xml version="1.0" encoding="UTF-8" standalone="no"?>
<svg width="69px" height="92px" viewBox="0 0 69 92" version="1.1" xmlns="http://www.w3.org/2000/svg" xmlns:xlink="http://www.w3.org/1999/xlink" xmlns:sketch="http://www.bohemiancoding.com/sketch/ns">
    <!-- Generator: Sketch 3.3.2 (12043) - http://www.bohemiancoding.com/sketch -->
    <title>bitcoin</title>
    <desc>Created with Sketch.</desc>
    <defs></defs>
    <g id="Page-1" stroke="none" stroke-width="1" fill="none" fill-rule="evenodd" sketch:type="MSPage">
        <path d="M68.711,36.656 C70.144,27.074 62.848,21.925 52.873,18.489 L56.108,5.511 L48.209,3.542 L45.058,16.178 C42.979,15.66 40.848,15.172 38.727,14.689 L41.898,1.969 L34.004,0 L30.765,12.976 C29.046,12.584 27.359,12.198 25.72,11.79 L25.728,11.75 L14.834,9.03 L12.732,17.467 C12.732,17.467 18.593,18.81 18.469,18.894 C21.669,19.693 22.246,21.81 22.15,23.488 L18.465,38.273 C18.685,38.33 18.97,38.409 19.286,38.537 C19.022,38.471 18.741,38.4 18.452,38.33 L13.286,59.04 C12.894,60.012 11.901,61.471 9.665,60.917 C9.744,61.031 3.92,59.484 3.92,59.484 L-7.10542736e-15,68.525 L10.28,71.088 C12.191,71.567 14.068,72.067 15.912,72.541 L12.645,85.668 L20.536,87.637 L23.773,74.65 C25.931,75.234 28.023,75.775 30.071,76.284 L26.845,89.21 L34.745,91.179 L38.015,78.077 C51.488,80.625 61.619,79.597 65.881,67.414 C69.318,57.604 65.711,51.945 58.623,48.254 C63.784,47.064 67.674,43.668 68.711,36.656 L68.711,36.656 Z M50.662,61.967 C48.218,71.778 31.702,66.474 26.344,65.143 L30.682,47.754 C36.037,49.089 53.212,51.735 50.662,61.967 L50.662,61.967 Z M53.102,36.515 C50.876,45.439 37.127,40.904 32.667,39.792 L36.599,24.02 C41.058,25.132 55.423,27.207 53.102,36.515 L53.102,36.515 Z" id="bitcoin" fill="#FFFFFF" sketch:type="MSShapeGroup"></path>
    </g>
</svg>